<?xml version="1.0" encoding="UTF-8" standalone="no"?>
<!DOCTYPE svg PUBLIC "-//W3C//DTD SVG 1.1//EN" "http://www.w3.org/Graphics/SVG/1.1/DTD/svg11.dtd">
<svg width="100%" height="100%" viewBox="0 0 3024 3024" version="1.1" xmlns="http://www.w3.org/2000/svg" xmlns:xlink="http://www.w3.org/1999/xlink" xml:space="preserve" xmlns:serif="http://www.serif.com/" style="fill-rule:evenodd;clip-rule:evenodd;stroke-linecap:round;stroke-linejoin:round;stroke-miterlimit:1.5;">
    <g transform="matrix(1.4237,0,0,1.3528,-636.091,-71.0585)">
        <path d="M2072.19,1313.5C2002.91,1059.51 1772.22,883.316 1508.96,883.316C1245.7,883.316 1015,1059.51 945.728,1313.5L1044.81,1340.52C1101.9,1131.22 1292.01,986.015 1508.96,986.015C1725.91,986.015 1916.02,1131.22 1973.11,1340.52L2072.19,1313.5Z" style="stroke:black;stroke-width:0.72px;"/>
    </g>
    <g transform="matrix(1.10573,-0.195014,0.321252,1.82149,1409.3,475.931)">
        <path d="M1157.87,630.388C1158.65,551.647 1054.48,487.32 924.777,486.449C674.381,484.769 313.202,482.344 313.202,482.344L203.063,633.834L241.167,777.736L920.633,777.736C1051.07,777.736 1157.03,713.802 1157.82,634.622C1157.84,633.21 1157.85,631.799 1157.87,630.388Z" style="stroke:black;stroke-width:0.65px;"/>
    </g>
    <g transform="matrix(-1.10573,-0.195014,-0.321252,1.82149,1616.86,475.931)">
        <path d="M1157.87,630.388C1158.65,551.647 1054.48,487.32 924.777,486.449C674.381,484.769 313.202,482.344 313.202,482.344L203.063,633.834L241.167,777.736L920.633,777.736C1051.07,777.736 1157.03,713.802 1157.82,634.622C1157.84,633.21 1157.85,631.799 1157.87,630.388Z" style="stroke:black;stroke-width:0.65px;"/>
    </g>
    <g transform="matrix(2.19425e-16,3.58348,-3.67011,2.24729e-16,4666.9,-2611.63)">
        <path d="M1206.83,710.851C1167.39,750.291 1145.24,803.783 1145.24,859.56C1145.24,915.337 1167.39,968.829 1206.83,1008.27L1244.01,971.092C1214.43,941.512 1197.81,901.393 1197.81,859.56C1197.81,817.727 1214.43,777.608 1244.01,748.028L1206.83,710.851Z" style="stroke:black;stroke-width:0.28px;"/>
    </g>
</svg>
